<?xml version="1.0" standalone="no"?>
<!DOCTYPE svg PUBLIC "-//W3C//DTD SVG 20010904//EN"
 "http://www.w3.org/TR/2001/REC-SVG-20010904/DTD/svg10.dtd">
<svg version="1.0" xmlns="http://www.w3.org/2000/svg"
 width="154.000000pt" height="221.000000pt" viewBox="0 0 154.000000 221.000000"
 preserveAspectRatio="xMidYMid meet">
<metadata>
Created by potrace 1.10, written by Peter Selinger 2001-2011
</metadata>
<g transform="translate(0.000000,221.000000) scale(0.100000,-0.100000)"
fill="#000000" stroke="none">
<path d="M84 2049 c-11 -60 -23 -103 -31 -106 -24 -9 -14 -23 17 -23 17 0 30
5 30 10 0 6 -4 10 -10 10 -5 0 -7 7 -4 15 4 8 16 15 29 15 25 0 41 -25 22 -37
-7 -4 0 -10 18 -15 37 -9 38 -8 21 28 -7 16 -22 68 -31 117 -24 117 -39 114
-61 -14z m49 -26 c6 -29 4 -33 -15 -33 -18 0 -20 4 -14 38 3 20 6 44 7 52 0
20 14 -14 22 -57z"/>
<path d="M68 1869 c-10 -5 -18 -19 -18 -31 0 -20 60 -138 70 -138 12 1 70 113
70 135 0 34 -33 50 -55 28 -16 -16 -18 -16 -27 0 -10 19 -16 20 -40 6z m66
-30 c13 11 17 10 22 -4 7 -18 -20 -85 -34 -85 -10 0 -32 45 -38 78 -4 20 -2
21 15 10 15 -9 23 -9 35 1z"/>
<path d="M636 1299 c-51 -60 -34 -120 77 -280 l59 -87 62 89 c94 138 106 160
106 206 0 88 -91 138 -139 77 -12 -15 -21 -33 -21 -41 0 -8 -4 -11 -10 -8 -5
3 -10 14 -10 24 0 27 -32 51 -67 51 -23 0 -39 -9 -57 -31z m109 -29 c9 -16 20
-30 26 -30 6 0 22 14 36 30 37 44 79 42 99 -5 21 -51 6 -94 -62 -185 -75 -100
-71 -97 -94 -72 -11 11 -20 24 -20 27 0 3 -14 24 -31 47 -35 49 -69 122 -69
150 0 67 85 95 115 38z"/>
<path d="M1396 514 c-38 -61 -44 -92 -24 -112 16 -16 45 -15 51 1 4 9 8 9 15
-1 5 -8 20 -12 33 -10 38 5 36 47 -4 119 l-34 61 -37 -58z m51 -21 c4 -10 10
-21 15 -24 5 -3 10 -14 12 -25 3 -16 -2 -19 -40 -20 -37 -1 -44 2 -44 18 0 22
28 68 41 68 6 0 13 -8 16 -17z"/>
<path d="M1360 341 c0 -6 4 -12 9 -15 5 -3 17 -49 27 -101 29 -153 41 -153 68
-3 12 63 23 99 33 102 21 8 6 26 -22 26 -26 0 -42 -16 -23 -22 21 -7 0 -40
-24 -36 -18 2 -23 9 -21 31 1 22 -2 27 -23 27 -13 0 -24 -4 -24 -9z m86 -102
c-3 -17 -6 -41 -6 -52 0 -35 -17 -6 -24 41 -6 38 -4 42 15 42 19 0 21 -4 15
-31z"/>
<path d="M0 42 c0 -5 8 -16 18 -25 17 -16 84 -17 753 -17 572 0 739 3 752 13
14 10 -130 11 -729 9 -658 -2 -750 0 -771 13 -12 9 -23 12 -23 7z"/>
</g>
</svg>
